<svg xmlns="http://www.w3.org/2000/svg" width="36" height="36" fill="none" class="text-gray-300"><g fill="white"><path d="M21 18a3 3 0 1 1-6 0 3 3 0 0 1 6 0Z"></path><path fill-rule="evenodd" d="M33.11 2.094c.501.475.522 1.266.046 1.767l-14.25 15a1.25 1.25 0 1 1-1.812-1.722l5.793-6.098a1.25 1.25 0 0 1-1.301.086 7.75 7.75 0 1 0 3.172 3.075 1.25 1.25 0 1 1 2.178-1.227A10.21 10.21 0 0 1 28.25 18c0 5.66-4.59 10.25-10.25 10.25S7.75 23.66 7.75 18 12.34 7.75 18 7.75c1.71 0 3.325.42 4.745 1.162a1.25 1.25 0 0 1 .476 1.777l8.123-8.55a1.25 1.25 0 0 1 1.767-.045ZM18 4.25C10.406 4.25 4.25 10.406 4.25 18S10.406 31.75 18 31.75 31.75 25.594 31.75 18c0-2.953-.93-5.684-2.511-7.924a1.25 1.25 0 0 1 2.041-1.443A16.182 16.182 0 0 1 34.25 18c0 8.975-7.275 16.25-16.25 16.25S1.75 26.975 1.75 18 9.025 1.75 18 1.75c3.114 0 6.027.877 8.501 2.399a1.25 1.25 0 1 1-1.31 2.13A13.68 13.68 0 0 0 18 4.25Z" clip-rule="evenodd"></path></g></svg>