<svg xmlns="http://www.w3.org/2000/svg" width="36" height="36" fill="none" class="text-gray-500 group-hover:text-gray-300"><path fill="white" fill-rule="evenodd" d="M14.134 4.95c-.41-.682-1.27-.891-1.907-.513l-.018.011-2.75 1.573a1.769 1.769 0 0 0-.65 2.406l-1.083.625 1.082-.626c.856 1.477 1.093 3.108.32 4.45-.774 1.343-2.303 1.956-4.008 1.956-.974 0-1.77.802-1.77 1.769v2.797c0 .966.796 1.77 1.77 1.77 1.705 0 3.234.612 4.007 1.954.774 1.342.537 2.973-.319 4.45a1.768 1.768 0 0 0 .65 2.405l2.75 1.574.019.01c.637.38 1.497.17 1.907-.513l.17-.294c.856-1.477 2.154-2.495 3.702-2.495 1.55 0 2.843 1.018 3.691 2.497l.002.003.168.29c.41.681 1.27.891 1.906.512l.019-.01 2.749-1.573a1.765 1.765 0 0 0 .65-2.409c-.855-1.476-1.09-3.106-.318-4.447.774-1.342 2.303-1.955 4.007-1.955.974 0 1.77-.803 1.77-1.77v-2.796c0-.974-.803-1.77-1.77-1.77-1.704 0-3.233-.612-4.007-1.954-.773-1.343-.537-2.973.32-4.45.48-.834.19-1.924-.651-2.405l-2.75-1.574-.019-.01c-.636-.38-1.497-.17-1.906.512l-.17.295c-.857 1.477-2.154 2.495-3.703 2.495-1.55 0-2.842-1.019-3.691-2.497a.03.03 0 0 1-.001-.003l-.168-.29Zm-3.175-2.667c1.87-1.106 4.243-.427 5.326 1.395l.008.012.178.307c.581 1.015 1.178 1.243 1.523 1.243.347 0 .949-.23 1.539-1.248l.174-.302.008-.012c1.084-1.822 3.456-2.5 5.327-1.395l2.74 1.568a4.269 4.269 0 0 1 1.575 5.827l-.001.001c-.59 1.018-.489 1.651-.317 1.95.172.298.67.703 1.841.703a4.278 4.278 0 0 1 4.27 4.269v2.797a4.278 4.278 0 0 1-4.27 4.27c-1.171 0-1.668.404-1.84.702-.173.299-.274.932.316 1.95l.003.006c1.166 2.04.475 4.65-1.577 5.822l-2.74 1.568c-1.871 1.106-4.244.427-5.327-1.395l-.008-.012-.174-.302-.003-.005c-.582-1.015-1.179-1.243-1.524-1.243-.347 0-.949.23-1.538 1.248l-.175.302-.008.012c-1.083 1.822-3.455 2.5-5.326 1.395l-2.74-1.568a4.268 4.268 0 0 1-1.575-5.827v-.001c.59-1.018.489-1.651.317-1.95-.172-.298-.67-.703-1.841-.703a4.278 4.278 0 0 1-4.27-4.27v-2.796a4.278 4.278 0 0 1 4.27-4.27c1.172 0 1.669-.404 1.841-.702.172-.299.273-.932-.316-1.95l-.001-.001a4.268 4.268 0 0 1 1.574-5.826l2.74-1.569Zm7.034 12.198a3.517 3.517 0 1 0 0 7.035 3.517 3.517 0 0 0 0-7.035ZM11.974 18a6.017 6.017 0 1 1 12.035 0 6.017 6.017 0 0 1-12.035 0Z" clip-rule="evenodd"></path></svg>