<svg xmlns="http://www.w3.org/2000/svg" width="36" height="36" fill="none" class="text-gray-500 group-hover:text-gray-300"><path fill="white" fill-rule="evenodd" d="M22.43 5.305a3.637 3.637 0 0 0-5.122 0 3.576 3.576 0 0 0 0 5.077l6.197 6.164a.705.705 0 0 0 .99 0l6.197-6.164a3.575 3.575 0 0 0 0-5.077 3.637 3.637 0 0 0-5.122 0l-.688.685a1.25 1.25 0 0 1-1.764 0l-.688-.685.881-.886m-.881.886.881-.886-.881.886Zm-6.886-1.773A6.137 6.137 0 0 1 24 3.348a6.137 6.137 0 0 1 8.456.184 6.075 6.075 0 0 1 0 8.622l-6.197 6.165a3.205 3.205 0 0 1-4.518 0l-6.197-6.165a6.075 6.075 0 0 1 0-8.622ZM1.75 15c0-.69.56-1.25 1.25-1.25h3c.172 0 .343.036.501.105l10.182 4.454a3.25 3.25 0 0 1 1.684 4.258l-.342.798 3.767 1.884a4.75 4.75 0 0 0 2.124.501H28A3.25 3.25 0 0 1 31.25 29v2A3.25 3.25 0 0 1 28 34.25H13.889a9.25 9.25 0 0 1-4.137-.977L2.44 29.618a1.25 1.25 0 1 1 1.118-2.236l7.31 3.655a6.75 6.75 0 0 0 3.02.713H28a.75.75 0 0 0 .75-.75v-2a.75.75 0 0 0-.75-.75h-4.084a7.25 7.25 0 0 1-3.242-.765l-4.023-2.012c-.9.674-2.124.863-3.232.388L10.008 24.4a1.25 1.25 0 1 1 .984-2.298l3.412 1.462a.75.75 0 0 0 .985-.394l.68-1.587a.75.75 0 0 0-.389-.982L5.74 16.25H3c-.69 0-1.25-.56-1.25-1.25Z" clip-rule="evenodd"></path></svg>