<svg xmlns="http://www.w3.org/2000/svg" width="36" height="36" fill="none" class="text-gray-500 group-hover:text-gray-300"><path fill="white" fill-rule="evenodd" d="M10.623 5.165c1.937-.322 4.37-.415 7.377-.415 3.008 0 5.44.093 7.377.415 1.94.324 3.52.899 4.71 1.968 1.204 1.085 1.857 2.541 2.216 4.314.355 1.75.447 3.921.447 6.553 0 2.631-.092 4.803-.447 6.553-.36 1.773-1.012 3.23-2.217 4.314-1.188 1.07-2.769 1.644-4.709 1.968-1.937.322-4.37.415-7.377.415-3.008 0-5.44-.093-7.377-.415-1.94-.324-3.52-.899-4.71-1.968-1.204-1.085-1.857-2.541-2.216-4.314-.355-1.75-.447-3.922-.447-6.553 0-2.632.092-4.803.447-6.553.36-1.773 1.012-3.23 2.217-4.314 1.189-1.07 2.769-1.644 4.709-1.968Zm-4.476 6.779C5.846 13.428 5.75 15.382 5.75 18c0 2.619.096 4.572.397 6.056.296 1.462.77 2.35 1.44 2.952.686.618 1.73 1.075 3.447 1.36 1.718.287 3.973.382 6.966.382 2.992 0 5.248-.095 6.966-.381 1.717-.287 2.761-.743 3.448-1.36.67-.604 1.142-1.491 1.44-2.953.3-1.484.396-3.438.396-6.056s-.096-4.572-.397-6.056c-.297-1.462-.77-2.35-1.44-2.952-.686-.618-1.73-1.075-3.447-1.36-1.718-.287-3.974-.382-6.966-.382s-5.248.095-6.966.381c-1.717.286-2.761.743-3.448 1.36-.67.604-1.143 1.491-1.44 2.953Zm9.953 3.47v5.172L20.533 18 16.1 15.414Zm-1.888-2.933c.638-.478 1.328-.259 1.647-.099l.07.038 7.177 4.187c.421.227.869.695.869 1.393 0 .698-.448 1.166-.869 1.393l-7.09 4.136c-.56.42-1.238.303-1.64.062A1.613 1.613 0 0 1 13.6 22.2v-8.4c0-.273.056-.901.613-1.319Z" clip-rule="evenodd"></path></svg>