<svg width="20" height="20" viewBox="0 0 20 20" fill="none" xmlns="http://www.w3.org/2000/svg"><path d="M5.85979 3.81302C5.85979 4.81432 4.99575 5.62603 3.9299 5.62603C2.86404 5.62603 2 4.81432 2 3.81302C2 2.81172 2.86404 2 3.9299 2C4.99575 2 5.85979 2.81172 5.85979 3.81302Z" fill="currentColor"></path><path d="M2.26392 6.95868H5.56289V17H2.26392V6.95868Z" fill="currentColor"></path><path d="M10.8742 6.95868H7.57526V17H10.8742C10.8742 17 10.8742 13.8388 10.8742 11.8623C10.8742 10.676 11.2775 9.4845 12.8866 9.4845C14.7051 9.4845 14.6941 11.037 14.6857 12.2397C14.6746 13.8119 14.701 15.4163 14.701 17H18V11.7004C17.9721 8.31648 17.0942 6.75723 14.2062 6.75723C12.4911 6.75723 11.428 7.53935 10.8742 8.24696V6.95868Z" fill="currentColor"></path></svg>