<svg width="20" height="20" viewBox="0 0 20 20" fill="none" xmlns="http://www.w3.org/2000/svg"><path id="Vector" d="M17.7009 5.61199C17.5009 4.95845 17.0008 4.49164 16.3007 4.30492C14.2005 4.1182 12.1002 3.93147 10 4.02483C7.89976 4.02483 5.79951 4.1182 3.69927 4.30492C3.0992 4.49164 2.49913 5.05182 2.29911 5.61199C1.9003 8.52548 1.9003 11.4745 2.29911 14.388C2.49913 15.0415 2.99919 15.5084 3.69927 15.6951C5.79951 15.8818 7.89976 16.0685 10 15.9752C12.1002 15.9752 14.2005 15.8818 16.3007 15.6951C17.0008 15.5084 17.5009 15.0415 17.7009 14.388C18.0997 11.4745 18.0997 8.52548 17.7009 5.61199V5.61199ZM7.99977 12.8009V7.19914L13.2004 10L7.99977 12.8009Z" fill="currentColor"></path></svg>