<svg xmlns="http://www.w3.org/2000/svg" viewBox="0 0 20 20" fill="none" id="use-href-target"><g clip-path="url(#a)"><path fill="#f97316" fill-rule="evenodd" d="M.917 5A4.083 4.083 0 0 1 5 .917h10A4.083 4.083 0 0 1 19.083 5v10A4.085 4.085 0 0 1 15 19.084H5A4.085 4.085 0 0 1 .917 15V5ZM5 2.417A2.583 2.583 0 0 0 2.417 5v10c0 .88.439 1.657 1.11 2.123a6.585 6.585 0 0 1 12.945 0A2.581 2.581 0 0 0 17.583 15V5A2.583 2.583 0 0 0 15 2.417H5Zm10.028 15.167a5.085 5.085 0 0 0-10.057 0h10.057ZM6.75 7.5a3.25 3.25 0 1 1 6.5 0 3.25 3.25 0 0 1-6.5 0ZM10 5.75a1.75 1.75 0 1 0 0 3.5 1.75 1.75 0 0 0 0-3.5Z" clip-rule="evenodd"/></g><defs><clipPath id="a"><path fill="var(--svg-use-color-primary, currentColor)" d="M0 0h20v20H0z"/></clipPath></defs></svg>