<svg xmlns="http://www.w3.org/2000/svg" viewBox="0 0 20 20" fill="none" id="use-href-target"><path fill="#f97316" fill-rule="evenodd" d="M.917 5.833A4.083 4.083 0 0 1 5 1.75h10a4.083 4.083 0 0 1 4.083 4.083v8.334A4.083 4.083 0 0 1 15 18.25H6.667a.75.75 0 0 1 0-1.5H15a2.583 2.583 0 0 0 2.583-2.583V5.833A2.583 2.583 0 0 0 15 3.25H5a2.583 2.583 0 0 0-2.583 2.583V10a.75.75 0 0 1-1.5 0V5.833Zm3.459.418a.75.75 0 0 1 1.04-.208l3.151 2.1a2.583 2.583 0 0 0 2.866 0l3.15-2.1a.75.75 0 0 1 .833 1.248l-3.151 2.1a4.083 4.083 0 0 1-4.53 0l-3.151-2.1a.75.75 0 0 1-.208-1.04ZM.916 12.5a.75.75 0 0 1 .75-.75h5a.75.75 0 0 1 0 1.5h-5a.75.75 0 0 1-.75-.75Zm0 2.5a.75.75 0 0 1 .75-.75h5a.75.75 0 0 1 0 1.5h-5a.75.75 0 0 1-.75-.75Z" clip-rule="evenodd"/></svg>