<svg width="24" height="24" viewBox="0 0 24 24" fill="none" xmlns="http://www.w3.org/2000/svg">
<g clip-path="url(#clip0_37934_623)">
<path fill-rule="evenodd" clip-rule="evenodd" d="M9.75 8C9.75 6.75736 10.7574 5.75 12 5.75C13.2426 5.75 14.25 6.75736 14.25 8C14.25 9.24264 13.2426 10.25 12 10.25C10.7574 10.25 9.75 9.24264 9.75 8ZM12 4.25C9.92893 4.25 8.25 5.92893 8.25 8C8.25 10.0711 9.92893 11.75 12 11.75C14.0711 11.75 15.75 10.0711 15.75 8C15.75 5.92893 14.0711 4.25 12 4.25ZM6.75 16.5C6.75 16.4161 6.78764 16.2683 6.99785 16.0612C7.2107 15.8515 7.55717 15.6281 8.04582 15.4245C9.01984 15.0187 10.4174 14.75 12 14.75C13.5826 14.75 14.9802 15.0187 15.9542 15.4245C16.4428 15.6281 16.7893 15.8515 17.0022 16.0612C17.2124 16.2683 17.25 16.4161 17.25 16.5C17.25 16.5839 17.2124 16.7317 17.0022 16.9388C16.7893 17.1485 16.4428 17.3719 15.9542 17.5755C14.9802 17.9813 13.5826 18.25 12 18.25C10.4174 18.25 9.01984 17.9813 8.04582 17.5755C7.55717 17.3719 7.2107 17.1485 6.99785 16.9388C6.78764 16.7317 6.75 16.5839 6.75 16.5ZM12 13.25C10.2689 13.25 8.66645 13.5409 7.4689 14.0399C6.87176 14.2887 6.33955 14.6041 5.94517 14.9926C5.54815 15.3837 5.25 15.8936 5.25 16.5C5.25 17.1064 5.54815 17.6163 5.94517 18.0074C6.33955 18.3959 6.87176 18.7113 7.4689 18.9601C8.66645 19.4591 10.2689 19.75 12 19.75C13.7311 19.75 15.3335 19.4591 16.5311 18.9601C17.1282 18.7113 17.6604 18.3959 18.0548 18.0074C18.4519 17.6163 18.75 17.1064 18.75 16.5C18.75 15.8936 18.4519 15.3837 18.0548 14.9926C17.6604 14.6041 17.1282 14.2887 16.5311 14.0399C15.3335 13.5409 13.7311 13.25 12 13.25ZM6.44547 13.2615C5.20689 13.313 4.06913 13.5361 3.18592 13.8894C2.68122 14.0913 2.22245 14.3505 1.87759 14.6766C1.53115 15.0042 1.25 15.4512 1.25 16C1.25 16.5488 1.53115 16.9958 1.87759 17.3234C2.22245 17.6495 2.68122 17.9087 3.18592 18.1106C3.68571 18.3105 4.26701 18.4687 4.90197 18.5778C4.40834 18.0453 4.09852 17.4503 4.01985 16.8195C3.92341 16.787 3.83104 16.7531 3.74301 16.7179C3.34289 16.5578 3.06943 16.386 2.90826 16.2336C2.7498 16.0837 2.74999 16.0046 2.75 16.0001L2.75 16L2.75 15.9999C2.74999 15.9954 2.7498 15.9163 2.90826 15.7664C3.06943 15.614 3.34289 15.4422 3.74301 15.2821C3.94597 15.201 4.17201 15.1266 4.41787 15.0608C4.83157 14.371 5.53447 13.756 6.44547 13.2615ZM19.0981 18.5778C19.5917 18.0453 19.9015 17.4503 19.9802 16.8195C20.0766 16.787 20.169 16.7531 20.257 16.7179C20.6571 16.5578 20.9306 16.386 21.0918 16.2336C21.2502 16.0837 21.25 16.0046 21.25 16.0001V16V15.9999C21.25 15.9954 21.2502 15.9163 21.0918 15.7664C20.9306 15.614 20.6571 15.4422 20.257 15.2821C20.0541 15.201 19.828 15.1266 19.5822 15.0608C19.1685 14.371 18.4656 13.756 17.5546 13.2615C18.7931 13.313 19.9309 13.5361 20.8141 13.8894C21.3188 14.0913 21.7776 14.3505 22.1224 14.6766C22.4689 15.0042 22.75 15.4512 22.75 16C22.75 16.5488 22.4689 16.9958 22.1224 17.3234C21.7776 17.6495 21.3188 17.9087 20.8141 18.1106C20.3143 18.3105 19.733 18.4687 19.0981 18.5778ZM16.5144 10.1522C16.2945 10.6126 16.0063 11.0341 15.6628 11.4036C16.0586 11.6243 16.5146 11.75 17 11.75C18.5188 11.75 19.75 10.5188 19.75 9C19.75 7.48122 18.5188 6.25 17 6.25C16.8957 6.25 16.7928 6.2558 16.6915 6.26711C16.8636 6.73272 16.9683 7.23096 16.9939 7.75001L17 7.75C17.6904 7.75 18.25 8.30964 18.25 9C18.25 9.69036 17.6904 10.25 17 10.25C16.8278 10.25 16.6637 10.2152 16.5144 10.1522ZM7 6.25C7.10427 6.25 7.20719 6.2558 7.30845 6.26711C7.13641 6.73272 7.0317 7.23096 7.00614 7.75001L7 7.75C6.30964 7.75 5.75 8.30964 5.75 9C5.75 9.69036 6.30964 10.25 7 10.25C7.17222 10.25 7.33631 10.2152 7.4856 10.1522C7.70549 10.6126 7.99374 11.0341 8.33721 11.4036C7.94138 11.6243 7.48537 11.75 7 11.75C5.48122 11.75 4.25 10.5188 4.25 9C4.25 7.48122 5.48122 6.25 7 6.25Z" fill="#FF5E00"/>
</g>
<defs>
<clipPath id="clip0_37934_623">
<rect width="24" height="24" fill="white"/>
</clipPath>
</defs>
</svg>
