<svg width="21" height="24" viewBox="0 0 21 24" fill="none" xmlns="http://www.w3.org/2000/svg">
<g id="Vector">
<path id="Vector_2" d="M16.5577 16.6964C15.3562 17.7388 13.8039 18.3051 12.2019 18.2852C8.50962 18.2852 5.79808 15.6182 5.79808 11.9582C5.79808 8.29819 8.42308 5.74469 12.2019 5.74469C13.8077 5.72333 15.3664 6.27808 16.5865 7.30516L17.3942 7.9861L20.9712 4.46794L20.0769 3.64514C17.9138 1.74321 15.103 0.710276 12.2019 0.751169C5.56731 0.751169 0.75 5.46097 0.75 11.9298C0.75 18.3987 5.68269 23.2504 12.2019 23.2504C15.1306 23.2901 17.9656 22.2356 20.1346 20.2997L21 19.5052L17.3654 15.9871L16.5577 16.6964Z" fill="#3D3D3D"/>
<path id="Vector_3" d="M12.0279 15.7604C14.1468 15.7604 15.8645 14.0709 15.8645 11.9869C15.8645 9.90284 14.1468 8.21338 12.0279 8.21338C9.90908 8.21338 8.19141 9.90284 8.19141 11.9869C8.19141 14.0709 9.90908 15.7604 12.0279 15.7604Z" fill="#FF3D2E"/>
</g>
</svg>
