<svg width="24" height="24" viewBox="0 0 24 24" fill="none" xmlns="http://www.w3.org/2000/svg">
<g id="Industries/Finances">
<g id="Vector">
<path d="M20.4853 3.51469C18.2188 1.24819 15.2053 0 12 0C8.79469 0 5.78119 1.24819 3.51469 3.51469C1.24823 5.78119 0 8.79469 0 12C0 15.2053 1.24823 18.2188 3.51469 20.4853C5.78119 22.7518 8.79469 24 12 24C15.2053 24 18.2188 22.7518 20.4853 20.4853C22.7518 18.2188 24 15.2053 24 12C24 8.79469 22.7518 5.78119 20.4853 3.51469ZM12 22.5938C6.15858 22.5938 1.40625 17.8414 1.40625 12C1.40625 6.15858 6.15858 1.40625 12 1.40625C17.8414 1.40625 22.5938 6.15858 22.5938 12C22.5938 17.8414 17.8414 22.5938 12 22.5938Z" fill="#FF5E00"/>
<path d="M12.7531 11.2969H11.2469C10.3887 11.2969 9.69061 10.5988 9.69061 9.74067C9.69061 8.88253 10.3888 8.18442 11.2469 8.18442H14.2594C14.6477 8.18442 14.9625 7.86961 14.9625 7.4813C14.9625 7.09298 14.6477 6.77817 14.2594 6.77817H12.7031V5.22192C12.7031 4.83361 12.3883 4.5188 12 4.5188C11.6117 4.5188 11.2969 4.83361 11.2969 5.22192V6.77817H11.2469C9.61336 6.77817 8.28441 8.10717 8.28441 9.74067C8.28441 11.3742 9.61341 12.7031 11.2469 12.7031H12.7532C13.6113 12.7031 14.3094 13.4013 14.3094 14.2594C14.3094 15.1175 13.6113 15.8156 12.7532 15.8156H9.74067C9.35236 15.8156 9.03755 16.1304 9.03755 16.5187C9.03755 16.9071 9.35236 17.2219 9.74067 17.2219H11.2969V18.7782C11.2969 19.1665 11.6117 19.4813 12 19.4813C12.3883 19.4813 12.7031 19.1665 12.7031 18.7782V17.2219H12.7531C14.3866 17.2219 15.7156 15.8929 15.7156 14.2594C15.7156 12.6259 14.3866 11.2969 12.7531 11.2969Z" fill="#FF5E00"/>
</g>
</g>
</svg>
