<svg width="25" height="24" viewBox="0 0 25 24" fill="none" xmlns="http://www.w3.org/2000/svg">
<path d="M16.7925 2.94572L16.3335 3.40235L15.8745 2.94572C14.6069 1.68476 12.5518 1.68476 11.2842 2.94571C10.0166 4.20667 10.0166 6.25108 11.2842 7.51203L15.4154 11.6217C15.9225 12.1261 16.7445 12.1261 17.2516 11.6217L21.3828 7.51203C22.6504 6.25108 22.6504 4.20667 21.3828 2.94572C20.1152 1.68476 18.0601 1.68476 16.7925 2.94572Z" stroke="#FF5E00" stroke-width="1.5" stroke-linejoin="round"/>
<path d="M2.3335 10H4.3335L10.5957 12.7397C11.5576 13.1605 11.9999 14.2784 11.5863 15.2434V15.2434C11.1705 16.2136 10.047 16.663 9.07692 16.2472L7.3335 15.5" stroke="#FF5E00" stroke-width="1.5" stroke-linecap="round" stroke-linejoin="round"/>
<path d="M2.66891 18.3292C2.29842 18.1439 1.84792 18.2941 1.66268 18.6646C1.47743 19.0351 1.6276 19.4856 1.99809 19.6708L2.66891 18.3292ZM11.6689 15.3292L10.9981 14.9938L10.3273 16.3354L10.9981 16.6708L11.6689 15.3292ZM14.0666 17.3666L13.7312 18.0374L14.0666 17.3666ZM16.7499 18.75H18.3335V17.25H16.7499V18.75ZM18.3335 21.25H10.222V22.75H18.3335V21.25ZM6.97974 20.4846L2.66891 18.3292L1.99809 19.6708L6.30892 21.8262L6.97974 20.4846ZM14.402 16.6957L11.6689 15.3292L10.9981 16.6708L13.7312 18.0374L14.402 16.6957ZM10.222 21.25C9.09651 21.25 7.98644 20.9879 6.97974 20.4846L6.30892 21.8262C7.52391 22.4337 8.86365 22.75 10.222 22.75V21.25ZM19.5835 20C19.5835 20.6904 19.0239 21.25 18.3335 21.25V22.75C19.8523 22.75 21.0835 21.5188 21.0835 20H19.5835ZM18.3335 18.75C19.0239 18.75 19.5835 19.3096 19.5835 20H21.0835C21.0835 18.4812 19.8523 17.25 18.3335 17.25V18.75ZM16.7499 17.25C15.9349 17.25 15.131 17.0602 14.402 16.6957L13.7312 18.0374C14.6685 18.506 15.702 18.75 16.7499 18.75V17.25Z" fill="#FF5E00"/>
</svg>
