<svg width="25" height="24" viewBox="0 0 25 24" fill="none" xmlns="http://www.w3.org/2000/svg">
<path d="M22.667 12C22.667 17.5228 18.1898 22 12.667 22M22.667 12C22.667 6.47715 18.1898 2 12.667 2M22.667 12C22.667 10.3431 18.1898 9 12.667 9C7.14414 9 2.66699 10.3431 2.66699 12M22.667 12C22.667 13.6569 18.1898 15 12.667 15C7.14414 15 2.66699 13.6569 2.66699 12M12.667 22C7.14414 22 2.66699 17.5228 2.66699 12M12.667 22C14.8761 22 16.667 17.5228 16.667 12C16.667 6.47715 14.8761 2 12.667 2M12.667 22C10.4579 22 8.66699 17.5228 8.66699 12C8.66699 6.47715 10.4579 2 12.667 2M2.66699 12C2.66699 6.47715 7.14414 2 12.667 2" stroke="#FF5D00" stroke-width="1.5"/>
</svg>
