<svg width="24" height="24" viewBox="0 0 24 24" fill="none" xmlns="http://www.w3.org/2000/svg">
<path d="M11.9947 15.178C13.7501 15.178 15.1731 13.755 15.1731 11.9996C15.1731 10.2443 13.7501 8.82129 11.9947 8.82129C10.2394 8.82129 8.81641 10.2443 8.81641 11.9996C8.81641 13.755 10.2394 15.178 11.9947 15.178Z" stroke="#FF5E00" stroke-width="1.5" stroke-miterlimit="10" stroke-linecap="round" stroke-linejoin="round"/>
<path d="M1.40039 12.9323V11.0677C1.40039 9.96586 2.30092 9.05474 3.41334 9.05474C5.33093 9.05474 6.11492 7.69865 5.15083 6.03532C4.59992 5.08182 4.92834 3.84227 5.89244 3.29136L7.72528 2.24251C8.56224 1.74457 9.64287 2.04121 10.1408 2.87818L10.2574 3.07947C11.2109 4.7428 12.7788 4.7428 13.7429 3.07947L13.8595 2.87818C14.3574 2.04121 15.438 1.74457 16.275 2.24251L18.1078 3.29136C19.0719 3.84227 19.4004 5.08182 18.8495 6.03532C17.8854 7.69865 18.6693 9.05474 20.5869 9.05474C21.6888 9.05474 22.5999 9.95527 22.5999 11.0677V12.9323C22.5999 14.0341 21.6994 14.9453 20.5869 14.9453C18.6693 14.9453 17.8854 16.3013 18.8495 17.9647C19.4004 18.9288 19.0719 20.1577 18.1078 20.7086L16.275 21.7575C15.438 22.2554 14.3574 21.9588 13.8595 21.1218L13.7429 20.9205C12.7894 19.2572 11.2214 19.2572 10.2574 20.9205L10.1408 21.1218C9.64287 21.9588 8.56224 22.2554 7.72528 21.7575L5.89244 20.7086C4.92834 20.1577 4.59992 18.9182 5.15083 17.9647C6.11492 16.3013 5.33093 14.9453 3.41334 14.9453C2.30092 14.9453 1.40039 14.0341 1.40039 12.9323Z" stroke="#FF5E00" stroke-width="1.5" stroke-miterlimit="10" stroke-linecap="round" stroke-linejoin="round"/>
</svg>
