<svg width="25" height="24" viewBox="0 0 25 24" fill="none" xmlns="http://www.w3.org/2000/svg">
<g id="vuesax/linear/airdrop">
<g id="Group">
<path id="Vector" d="M14.4603 11.3396C14.8503 9.69959 13.4203 8.26954 11.7803 8.65954C11.0103 8.84954 10.3803 9.47957 10.1903 10.2496C9.8003 11.8896 11.2303 13.3196 12.8703 12.9296C13.6503 12.7396 14.2803 12.1096 14.4603 11.3396Z" stroke="#FF5D00" stroke-width="1.5" stroke-linecap="round" stroke-linejoin="round"/>
<path id="Vector_2" d="M18.34 17.19C20.05 15.59 21.12 13.32 21.12 10.79C21.12 5.92998 17.18 2 12.33 2C7.48003 2 3.54004 5.93998 3.54004 10.79C3.54004 13.33 4.62004 15.62 6.35004 17.22" stroke="#FF5E00" stroke-width="1.5" stroke-linecap="round" stroke-linejoin="round"/>
<path id="Vector_3" d="M8.32985 14.5498C7.40985 13.5698 6.83984 12.2498 6.83984 10.7898C6.83984 7.75979 9.29985 5.2998 12.3298 5.2998C15.3598 5.2998 17.8199 7.75979 17.8199 10.7898C17.8199 12.2498 17.2498 13.5598 16.3298 14.5498" stroke="#FF5E00" stroke-width="1.5" stroke-linecap="round" stroke-linejoin="round"/>
<path id="Vector_4" d="M10.6303 16.6603L9.1903 18.4503C8.0503 19.8803 9.0603 21.9903 10.8903 21.9903H13.7603C15.5903 21.9903 16.6103 19.8703 15.4603 18.4503L14.0203 16.6603C13.1603 15.5703 11.5003 15.5703 10.6303 16.6603Z" stroke="#FF5E00" stroke-width="1.5" stroke-linecap="round" stroke-linejoin="round"/>
</g>
</g>
</svg>
