<svg xmlns="http://www.w3.org/2000/svg" width="80" height="80" fill="none"><g clip-path="url(#a)"><path fill="#17313B" d="M49.924 50.017a13.558 13.558 0 0 1-9.14 3.39c-7.748 0-13.437-5.69-13.437-13.498 0-7.809 5.508-13.256 13.437-13.256a13.861 13.861 0 0 1 9.2 3.329l1.695 1.453 7.506-7.506-1.876-1.755A24.272 24.272 0 0 0 40.784 16c-13.922 0-24.03 10.047-24.03 23.848C16.754 53.65 27.104 64 40.784 64a24.272 24.272 0 0 0 16.646-6.295l1.816-1.695-7.627-7.506-1.695 1.513Z"/><path fill="#FF3D2E" d="M40.422 48.02a8.05 8.05 0 1 0 0-16.1 8.05 8.05 0 0 0 0 16.1Z"/></g><rect width="79" height="79" x=".5" y=".5" stroke="#17313B" rx="39.5"/><defs><clipPath id="a"><path fill="#fff" d="M16.754 16h42.492v48H16.754z"/></clipPath></defs></svg>