<svg xmlns="http://www.w3.org/2000/svg" width="80" height="80" fill="none"><path fill="#C77C3B" d="M34.072 22.13a12.994 12.994 0 0 1 7.83 4.837 13.805 13.805 0 0 1 2.911 8.464c0 2.065-1.154 5.239-3.262 9.118.652 1.108 1.355 2.317 2.158 3.627 2.66-4.635 4.668-9.32 4.668-12.745 0-3.88-1.205-7.456-3.263-10.328-1.957-2.72-4.617-4.886-7.78-6.045-1.706-.705-3.613-1.058-5.62-1.058C22.478 18 15 25.808 15 35.43c0 7.003 8.382 19.144 13.35 25.743a4.133 4.133 0 0 0 3.364 1.713c1.305 0 2.56-.604 3.362-1.713 1.054-1.36 2.209-2.972 3.463-4.735-.752-1.108-1.455-2.217-2.158-3.325a216.247 216.247 0 0 1-4.065 5.642c-.251.353-.853.353-1.155 0-7.88-10.428-12.547-19.143-12.547-23.324 0-7.456 5.872-13.552 13.1-13.552.803 0 1.556.1 2.358.252Z"/><path fill="#C77C3B" d="M41.817 56.438a98.488 98.488 0 0 0 3.513 4.735 4.212 4.212 0 0 0 3.41 1.713 4.212 4.212 0 0 0 3.41-1.713c4.99-6.599 13.49-18.79 13.49-25.742C65.64 25.809 58.055 18 48.69 18c-2.037 0-3.971.353-5.753 1.058 1.222.907 2.393 1.914 3.36 3.073a12.426 12.426 0 0 1 2.392-.252c7.33 0 13.286 6.045 13.286 13.552 0 4.18-4.734 12.896-12.726 23.324-.254.353-.865.353-1.17 0a216 216 0 0 1-4.124-5.642c-2.138-3.123-3.97-5.995-5.345-8.564-2.138-3.93-3.258-7.103-3.258-9.118 0-3.225 1.12-6.146 2.953-8.464-.967-.806-2.087-1.41-3.309-1.864-2.087 2.872-3.309 6.448-3.309 10.328 0 3.425 2.037 8.11 4.735 12.745 1.68 2.872 3.563 5.693 5.395 8.262Z"/><rect width="79" height="79" x=".5" y=".5" stroke="#C77C3B" rx="39.5"/></svg>