<svg width="83" height="40" viewBox="0 0 83 40" fill="none" xmlns="http://www.w3.org/2000/svg">
<path d="M14.8237 40H14.6351C6.93763 39.9503 0.689133 33.7841 0.666748 26.2024V2.31402C0.675854 1.04413 1.71695 0.0155557 3.00543 0H3.06537C4.36068 0.0155557 5.40443 1.05324 5.40443 2.33071V15.8301C7.97987 13.5681 11.2902 12.3213 14.7178 12.3213C14.7216 12.3213 14.7258 12.3213 14.7296 12.3213C22.4756 12.3213 28.7791 18.5175 28.792 26.1379V26.1849C28.7791 33.7743 22.5272 39.9503 14.8237 40ZM14.7296 16.9835C9.5878 16.9835 5.40443 21.1012 5.40443 26.1614C5.40443 31.2208 9.5878 35.3374 14.7296 35.3374C19.8713 35.3374 24.0547 31.2208 24.0547 26.1614C24.0547 21.1012 19.8713 16.9835 14.7296 16.9835Z" fill="#E62E50"/>
<path d="M43.1501 39.0392C36.0965 39.0392 30.3579 33.2912 30.3579 26.2266C30.3579 19.1586 36.0965 13.4109 43.1501 13.4109C50.2041 13.4109 55.9438 19.1589 55.9438 26.2254C55.9438 33.2912 50.2041 39.0389 43.1501 39.0389V39.0392ZM43.1501 16.0705C37.5599 16.0705 33.0115 20.6257 33.0115 26.2266C33.0115 31.8248 37.5599 36.3807 43.1501 36.3807C48.7399 36.3807 53.289 31.8248 53.289 26.2262C53.289 20.6261 48.7399 16.0705 43.1501 16.0705Z" fill="#E62E50"/>
<path d="M70.2041 38.3754C63.5167 38.3754 58.0759 32.9251 58.0759 26.2252V1.00847C58.0869 0.648788 58.3817 0.36499 58.7391 0.36499C58.746 0.36499 58.7528 0.36499 58.7596 0.36537C59.1106 0.375993 59.3921 0.657515 59.4031 1.00847V20.7271C61.4102 16.787 65.493 14.0765 70.2041 14.0765V14.0768C76.8916 14.0768 82.3331 19.5263 82.3331 26.2255C82.3331 32.9251 76.8912 38.3754 70.2041 38.3754ZM70.2041 15.4063C64.2489 15.4063 59.4031 20.2605 59.4031 26.2255C59.4031 32.1918 64.2489 37.0459 70.2041 37.0459C76.1605 37.0459 81.0059 32.1918 81.0059 26.2255C81.0059 20.2605 76.1597 15.4063 70.2041 15.4063Z" fill="#E62E50"/>
</svg>
