<svg width="147" height="18" viewBox="0 0 147 18" fill="none" xmlns="http://www.w3.org/2000/svg">
<path d="M143.914 13.5471C144.364 13.5471 144.804 13.6777 145.178 13.9224C145.553 14.167 145.845 14.5147 146.017 14.9216C146.189 15.3284 146.234 15.7761 146.146 16.208C146.059 16.6399 145.842 17.0366 145.523 17.348C145.205 17.6594 144.799 17.8714 144.358 17.9573C143.916 18.0432 143.459 17.9992 143.043 17.8306C142.627 17.6621 142.271 17.3767 142.021 17.0106C141.771 16.6444 141.637 16.214 141.637 15.7736C141.645 15.1855 141.888 14.6236 142.313 14.2076C142.738 13.7917 143.312 13.5547 143.914 13.5471Z" fill="#D470A7"/>
<path d="M15.7378 11.0745C15.7378 7.55899 18.3975 4.48877 22.9262 4.48877C27.455 4.48877 30.1626 7.55899 30.1626 11.0745C30.1626 14.59 27.5269 17.6837 22.9742 17.6837C18.4215 17.6837 15.7378 14.5842 15.7378 11.0745ZM25.2625 11.0745C25.2625 9.69175 24.4418 8.62537 22.9502 8.62537C21.4586 8.62537 20.6619 9.69175 20.6619 11.0745C20.6619 12.4573 21.4886 13.5471 22.9502 13.5471C24.4119 13.5471 25.2625 12.4749 25.2625 11.0745Z" fill="#030403"/>
<path d="M32.0735 4.79922H36.2668C36.3074 4.79921 36.3476 4.80713 36.3851 4.82251C36.4226 4.83789 36.4565 4.86043 36.485 4.8888C36.5134 4.91717 36.5358 4.95081 36.5508 4.98774C36.5658 5.02468 36.5731 5.06417 36.5723 5.1039V6.22887C37.5204 5.24599 38.7937 4.62326 40.1665 4.4711C40.2097 4.4679 40.2531 4.47337 40.294 4.48717C40.3349 4.50096 40.3725 4.5228 40.4045 4.55134C40.4365 4.57987 40.4621 4.6145 40.4799 4.6531C40.4977 4.6917 40.5073 4.73345 40.508 4.77578V8.55497C40.5076 8.59876 40.4977 8.64196 40.4787 8.68164C40.4598 8.72131 40.4323 8.75653 40.3982 8.78489C40.3641 8.81325 40.3241 8.83408 40.2811 8.84597C40.238 8.85786 40.1928 8.86053 40.1485 8.85379C39.9063 8.82163 39.6621 8.80597 39.4177 8.80692C38.4053 8.80692 37.0994 9.06472 36.5663 9.69166V17.0684C36.5663 17.1482 36.5343 17.2248 36.4772 17.2818C36.4201 17.3388 36.3424 17.3715 36.2608 17.3731H32.0675C31.986 17.3715 31.9083 17.3388 31.8511 17.2818C31.794 17.2248 31.762 17.1482 31.762 17.0684V5.1039C31.7612 5.06367 31.7687 5.02369 31.7841 4.98637C31.7994 4.94904 31.8224 4.91514 31.8514 4.88668C31.8805 4.85823 31.9152 4.83582 31.9534 4.82079C31.9915 4.80576 32.0324 4.79842 32.0735 4.79922Z" fill="#030403"/>
<path d="M50.488 10.4241C50.488 9.11745 49.7691 8.62527 48.625 8.62527C48.2281 8.62184 47.8359 8.70967 47.48 8.88166C47.1242 9.05366 46.8146 9.30502 46.5763 9.61548V17.0684C46.5763 17.1492 46.5435 17.2267 46.485 17.2838C46.4266 17.341 46.3474 17.3731 46.2648 17.3731H42.0715C41.9889 17.3731 41.9097 17.341 41.8512 17.2838C41.7928 17.2267 41.76 17.1492 41.76 17.0684V5.10389C41.76 5.02309 41.7928 4.94559 41.8512 4.88845C41.9097 4.83131 41.9889 4.79921 42.0715 4.79921H46.2648C46.3474 4.79921 46.4266 4.83131 46.485 4.88845C46.5435 4.94559 46.5763 5.02309 46.5763 5.10389V6.22886C47.138 5.64045 47.8237 5.17849 48.586 4.87498C49.3484 4.57147 50.169 4.43366 50.9912 4.4711C53.9864 4.4711 55.2743 6.22886 55.2743 8.42606V17.0684C55.2743 17.1482 55.2423 17.2248 55.1852 17.2818C55.1281 17.3388 55.0504 17.3715 54.9688 17.3731H50.7755C50.694 17.3715 50.6163 17.3388 50.5591 17.2818C50.502 17.2248 50.47 17.1482 50.47 17.0684L50.488 10.4241Z" fill="#030403"/>
<path d="M76.0069 13.7345C76.9123 12.6294 77.6917 11.4309 78.3312 10.1604C78.3495 10.1242 78.3604 10.0849 78.3631 10.0447C78.3658 10.0044 78.3603 9.96405 78.3469 9.9259C78.3335 9.88774 78.3125 9.85257 78.2852 9.82241C78.2578 9.79225 78.2245 9.76771 78.1874 9.75021L75.1443 8.33814C75.1044 8.32033 75.0612 8.31094 75.0174 8.31057C74.9736 8.31021 74.9303 8.31888 74.8901 8.33602C74.85 8.35316 74.814 8.37838 74.7845 8.41004C74.755 8.44171 74.7327 8.4791 74.719 8.51978C74.4169 9.35984 74.0147 10.1622 73.5209 10.9103L72.5744 9.73849C72.2869 9.35178 71.9754 8.94164 71.604 8.47876C73.6766 7.6116 75.7194 6.5335 75.7194 3.891C75.7194 1.45357 73.1794 0.0180664 70.5017 0.0180664C67.1711 0.0180664 64.9187 1.91645 64.9187 4.24841C64.9772 5.46599 65.3085 6.65613 65.8891 7.73464C63.9243 8.6604 62.217 9.99629 62.217 12.5333C62.217 15.9961 64.9187 17.6894 68.3272 17.6894C69.8666 17.6807 71.3767 17.2766 72.7062 16.5176C72.9937 16.8516 73.3052 17.1328 73.4909 17.3613H78.6127C78.6728 17.3624 78.7319 17.346 78.7826 17.3144C78.8333 17.2827 78.8733 17.2371 78.8976 17.1833C78.9219 17.1295 78.9295 17.0699 78.9193 17.0119C78.9091 16.9539 78.8816 16.9002 78.8403 16.8574C77.8579 15.8203 76.9174 14.7774 76.0069 13.7345ZM70.4478 14.2208C70.0049 14.3931 69.5345 14.4883 69.0581 14.502C68.7571 14.4994 68.46 14.4355 68.1857 14.3145C67.9114 14.1934 67.6658 14.0179 67.4646 13.7989C67.0265 13.3151 66.7912 12.6873 66.8057 12.0412C66.7862 11.431 66.9997 10.8357 67.4047 10.3713L67.7102 10.0256L67.9798 10.4006C68.3871 10.9865 68.8304 11.5431 69.2497 12.0822C69.5493 12.4806 70.0165 13.0138 70.5676 13.629L70.9151 14.0157L70.4478 14.2208ZM70.2142 6.38702L69.8907 6.53936L69.729 6.22297C69.4104 5.65316 69.2281 5.02012 69.1958 4.37146C69.1905 4.1708 69.2271 3.97118 69.3033 3.78481C69.3795 3.59844 69.4938 3.42922 69.6391 3.2875C69.9429 3.00641 70.3472 2.85287 70.7653 2.85978C71.1272 2.85548 71.4769 2.98768 71.7417 3.22891C71.8712 3.34991 71.9741 3.49544 72.0441 3.65662C72.1141 3.8178 72.1499 3.99125 72.1491 4.16638C72.1454 4.41603 72.0905 4.66241 71.9876 4.89089C71.8847 5.11937 71.7359 5.32529 71.55 5.49643C71.1591 5.86462 70.7075 6.1657 70.2142 6.38702Z" fill="#030403"/>
<path d="M101.298 4.79923H105.492C105.574 4.79923 105.654 4.83133 105.712 4.88847C105.77 4.94561 105.803 5.02311 105.803 5.10391V6.22888C106.751 5.246 108.025 4.62327 109.397 4.47112C109.44 4.46788 109.483 4.47336 109.524 4.48722C109.565 4.50108 109.602 4.52301 109.633 4.55163C109.665 4.58025 109.69 4.61494 109.707 4.65352C109.724 4.6921 109.733 4.73373 109.733 4.7758V8.55498C109.734 8.59908 109.724 8.64279 109.706 8.68297C109.687 8.72315 109.66 8.7588 109.625 8.78736C109.591 8.81593 109.551 8.8367 109.507 8.84819C109.463 8.85967 109.418 8.86159 109.373 8.8538C109.131 8.82164 108.887 8.80598 108.643 8.80693C107.63 8.80693 106.33 9.06473 105.797 9.69167V17.0684C105.797 17.1492 105.764 17.2267 105.706 17.2838C105.648 17.341 105.568 17.3731 105.486 17.3731H101.292C101.21 17.3731 101.131 17.341 101.072 17.2838C101.014 17.2267 100.981 17.1492 100.981 17.0684V5.10391C100.981 5.0634 100.989 5.0233 101.005 4.98595C101.021 4.94859 101.045 4.91474 101.074 4.88637C101.104 4.858 101.139 4.83568 101.177 4.82072C101.216 4.80576 101.257 4.79845 101.298 4.79923Z" fill="#030403"/>
<path d="M123.786 11.4729C123.786 7.10784 120.923 4.48877 117.197 4.48877C113.1 4.48877 110.29 7.38908 110.29 10.9866C110.29 15.0881 113.387 17.5079 117.353 17.5079C119.15 17.5079 121.234 17.0802 122.528 16.1545C122.594 16.1085 122.639 16.0394 122.653 15.9618C122.668 15.8842 122.651 15.8042 122.606 15.7384L120.995 13.3948C120.95 13.3304 120.881 13.2854 120.803 13.269C120.725 13.2527 120.644 13.2662 120.576 13.3069C119.783 13.7669 118.879 14.0117 117.958 14.0158C116.358 14.0158 115.436 13.2424 115.172 12.4456H123.786V11.4729ZM115.124 9.62143H114.627L114.753 9.2816C114.869 8.8907 115.096 8.53955 115.406 8.26796C115.913 7.86245 116.548 7.64092 117.203 7.64092C117.858 7.64092 118.493 7.86245 119 8.26796C119.297 8.55956 119.505 8.92704 119.599 9.32847L119.707 9.65073L115.124 9.62143Z" fill="#030403"/>
<path d="M93.6247 4.4652C92.9377 4.45113 92.2566 4.59114 91.6336 4.87451C91.0105 5.15788 90.4621 5.57707 90.0304 6.09992V0.299308C90.0304 0.220056 89.9982 0.14405 89.9409 0.0880105C89.8837 0.031971 89.8059 0.000488281 89.7249 0.000488281L85.5616 0.000488281C85.4806 0.000488281 85.4029 0.031971 85.3456 0.0880105C85.2883 0.14405 85.2561 0.220056 85.2561 0.299308V16.9922C85.2561 17.0714 85.2883 17.1474 85.3456 17.2035C85.4029 17.2595 85.4806 17.291 85.5616 17.291H89.7249C89.8059 17.291 89.8837 17.2595 89.9409 17.2035C89.9982 17.1474 90.0304 17.0714 90.0304 16.9922V15.9844C90.4674 16.5014 91.0168 16.9164 91.6386 17.1992C92.2604 17.482 92.9389 17.6255 93.6247 17.6191C96.7337 17.6191 99.2796 15.334 99.2796 11.0275C99.2796 6.8792 96.7876 4.4652 93.6247 4.4652ZM92.169 13.547C91.704 13.5481 91.2492 13.4143 90.8621 13.1623C90.4751 12.9104 90.1732 12.5517 89.9947 12.1318C89.8162 11.7119 89.7692 11.2496 89.8596 10.8035C89.95 10.3574 90.1738 9.94765 90.5026 9.62608C90.8313 9.30451 91.2503 9.08565 91.7064 8.99721C92.1624 8.90877 92.6351 8.95475 93.0644 9.12932C93.4937 9.30388 93.8604 9.59918 94.118 9.97778C94.3756 10.3564 94.5124 10.8013 94.5112 11.256C94.5096 11.8631 94.2624 12.445 93.8235 12.8743C93.3845 13.3036 92.7897 13.5454 92.169 13.547Z" fill="#030403"/>
<path d="M9.19634 4.46523C8.50939 4.45116 7.82827 4.59117 7.20524 4.87454C6.5822 5.15791 6.0338 5.5771 5.60211 6.09995V0.299337C5.60219 0.258572 5.59373 0.218223 5.57727 0.180773C5.5608 0.143323 5.53668 0.109564 5.50638 0.0815738C5.47608 0.0535832 5.44024 0.0319527 5.40107 0.0180131C5.36191 0.00407341 5.32024 -0.00188055 5.27863 0.000517484H1.11532C1.0343 0.000517484 0.95659 0.0320002 0.899296 0.0880397C0.842002 0.144079 0.809814 0.220085 0.809814 0.299337L0.809814 16.9922C0.809814 17.0715 0.842002 17.1475 0.899296 17.2035C0.95659 17.2596 1.0343 17.291 1.11532 17.291H5.30859C5.38752 17.288 5.46218 17.2552 5.51691 17.1995C5.57164 17.1438 5.60218 17.0695 5.60211 16.9922V15.9844C6.03904 16.5014 6.58846 16.9164 7.21027 17.1992C7.83209 17.4821 8.51062 17.6255 9.19634 17.6191C12.3053 17.6191 14.8513 15.3341 14.8513 11.0275C14.8453 6.87922 12.3533 4.46523 9.19634 4.46523ZM7.74068 13.547C7.27573 13.5482 6.8209 13.4143 6.43382 13.1624C6.04674 12.9104 5.74484 12.5518 5.56636 12.1319C5.38789 11.7119 5.34088 11.2496 5.4313 10.8035C5.52171 10.3575 5.74548 9.94768 6.07425 9.62611C6.40301 9.30454 6.82198 9.08567 7.27805 8.99724C7.73412 8.9088 8.20676 8.95478 8.63609 9.12935C9.06541 9.30391 9.43209 9.59921 9.68966 9.97781C9.94724 10.3564 10.0841 10.8013 10.0829 11.2561C10.0813 11.8642 9.83323 12.4469 9.39302 12.8764C8.95282 13.3058 8.35644 13.547 7.73469 13.547H7.74068Z" fill="#030403"/>
<path d="M124.865 11.0275C124.865 15.334 127.41 17.6191 130.513 17.6191C131.199 17.6247 131.877 17.4808 132.499 17.1981C133.121 16.9153 133.67 16.5007 134.108 15.9844V16.9922C134.108 17.0714 134.14 17.1474 134.197 17.2035C134.254 17.2595 134.332 17.291 134.413 17.291H138.588C138.669 17.291 138.747 17.2595 138.804 17.2035C138.862 17.1474 138.894 17.0714 138.894 16.9922V0.299308C138.894 0.220056 138.862 0.14405 138.804 0.0880105C138.747 0.031971 138.669 0.000488281 138.588 0.000488281L134.425 0.000488281C134.344 0.000488281 134.266 0.031971 134.209 0.0880105C134.152 0.14405 134.12 0.220056 134.12 0.299308V6.09992C133.687 5.57807 133.138 5.15959 132.516 4.87632C131.893 4.59305 131.212 4.45244 130.525 4.4652C127.356 4.4652 124.865 6.8792 124.865 11.0275ZM129.657 11.256C129.657 10.8029 129.794 10.36 130.052 9.98324C130.309 9.60649 130.675 9.31286 131.103 9.13946C131.531 8.96606 132.002 8.9207 132.456 9.00909C132.91 9.09749 133.328 9.31568 133.655 9.63608C133.983 9.95647 134.206 10.3647 134.296 10.8091C134.387 11.2535 134.34 11.7141 134.163 12.1327C133.986 12.5513 133.685 12.9091 133.3 13.1609C132.915 13.4126 132.462 13.547 131.999 13.547C131.69 13.5493 131.383 13.4918 131.096 13.3778C130.81 13.2637 130.549 13.0955 130.329 12.8826C130.109 12.6697 129.934 12.4164 129.815 12.1372C129.696 11.8581 129.634 11.5586 129.633 11.256H129.657Z" fill="#030403"/>
</svg>
