<svg width="149" height="18" viewBox="0 0 149 18" fill="none" xmlns="http://www.w3.org/2000/svg">
<g clip-path="url(#clip0_782_2425)">
<path d="M0.423096 3.67358V18.0001H8.52432L13.7408 12.6858L18.9573 18.0001L20.7603 16.1634L8.50028 3.67358H0.423096ZM7.46659 15.4042H2.97125V6.29399H7.44255L11.9139 10.8491L7.46659 15.4042Z" fill="#242424"/>
<path d="M24.3901 1.83673L22.5872 0L15.5437 7.17551L22.5872 14.3265L24.3901 12.4898L19.1496 7.17551L24.3901 1.83673Z" fill="#242424"/>
<path d="M31.4578 4.35913H34.8713C37.732 4.35913 39.7273 6.36729 39.7273 8.9877V9.01219C39.7273 11.6326 37.732 13.6653 34.8713 13.6653H31.4578V4.35913ZM34.8713 12.1714C36.7945 12.1714 38.0445 10.8489 38.0445 9.03668V9.01219C38.0445 7.19995 36.7945 5.85301 34.8713 5.85301H33.0684V12.1714H34.8713Z" fill="#242424"/>
<path d="M41.7466 4.35913H43.3572V13.6653H41.7466V4.35913Z" fill="#242424"/>
<path d="M45.4005 9.03674V9.01225C45.3908 8.37803 45.5058 7.74824 45.7388 7.16004C45.9719 6.57183 46.3182 6.03713 46.7573 5.58747C47.1965 5.13781 47.7196 4.7823 48.2958 4.5419C48.872 4.3015 49.4896 4.18109 50.1122 4.18776C51.6987 4.18776 52.6844 4.62858 53.6219 5.46123L52.6122 6.71021C52.2735 6.37997 51.8739 6.12125 51.4366 5.94893C50.9993 5.77661 50.5328 5.69409 50.0641 5.70613C48.3813 5.70613 47.1073 7.20001 47.1073 8.98776V9.01225C47.1073 10.9225 48.3573 12.3429 50.2083 12.3429C51.0014 12.3555 51.7773 12.1063 52.4199 11.6327V9.89389H50.0881V8.47348H53.9825V12.3918C52.9219 13.3287 51.5639 13.8421 50.1602 13.8367C47.2755 13.8123 45.4005 11.7551 45.4005 9.03674Z" fill="#242424"/>
<path d="M56.1221 4.35913H57.7327V13.6653H56.1221V4.35913Z" fill="#242424"/>
<path d="M62.4202 5.8775H59.5115V4.35913H66.9156V5.8775H64.0068V13.6653H62.3962V5.8775H62.4202Z" fill="#242424"/>
<path d="M70.6897 4.28564H72.1802L76.1947 13.6652H74.4879L73.5504 11.4122H69.2233L68.2858 13.6652H66.6511L70.6897 4.28564ZM72.9975 9.96728L71.4109 6.24483L69.8483 9.96728H72.9975Z" fill="#242424"/>
<path d="M77.7812 4.35913H79.3919V12.1714H84.1997V13.6653H77.7812V4.35913Z" fill="#242424"/>
<path d="M89.7769 4.35913H91.3875V9.03668L95.7386 4.35913H97.7098L93.9116 8.35097L97.8781 13.6653H95.9309L92.8058 9.4775L91.3875 10.9714V13.6653H89.7769V4.35913Z" fill="#242424"/>
<path d="M99.2485 4.35913H100.739L105.643 10.7999V4.35913H107.23V13.6653H105.883L100.835 7.05301V13.6653H99.2485V4.35913Z" fill="#242424"/>
<path d="M109.633 4.35913H111.244V13.6653H109.633V4.35913Z" fill="#242424"/>
<path d="M113.287 9.03674V9.01225C113.278 8.37803 113.393 7.74824 113.626 7.16004C113.859 6.57184 114.205 6.03713 114.644 5.58747C115.083 5.13781 115.607 4.7823 116.183 4.5419C116.759 4.3015 117.377 4.18109 117.999 4.18776C119.586 4.18776 120.571 4.62858 121.509 5.46123L120.499 6.71021C120.16 6.37997 119.761 6.12125 119.324 5.94893C118.886 5.77661 118.42 5.69409 117.951 5.70613C116.268 5.70613 114.994 7.20001 114.994 8.98776V9.01225C114.994 10.9225 116.244 12.3429 118.095 12.3429C118.888 12.3555 119.664 12.1063 120.307 11.6327V9.89389H117.975V8.47348H121.869V12.3918C120.809 13.3287 119.451 13.8421 118.047 13.8367C115.162 13.8123 113.287 11.7551 113.287 9.03674Z" fill="#242424"/>
<path d="M123.937 4.35913H125.547V8.22852H129.899V4.35913H131.509V13.6653H129.899V9.74689H125.547V13.6653H123.937V4.35913Z" fill="#242424"/>
<path d="M136.101 5.8775H133.192V4.35913H140.596V5.8775H137.687V13.6653H136.077V5.8775H136.101Z" fill="#242424"/>
<path d="M141.51 12.294L142.471 11.1185C143.336 11.8777 144.226 12.3185 145.356 12.3185C146.341 12.3185 146.966 11.8532 146.966 11.143V11.1185C146.966 10.4573 146.606 10.0899 144.899 9.69808C142.952 9.20829 141.846 8.64502 141.846 6.93074V6.90625C141.846 5.31441 143.144 4.21237 144.971 4.21237C146.179 4.19221 147.354 4.60871 148.289 5.38788L147.423 6.63686C146.727 6.04416 145.854 5.70771 144.947 5.68176C144.01 5.68176 143.457 6.17155 143.457 6.7838V6.80829C143.457 7.51849 143.865 7.83686 145.62 8.27767C147.543 8.76747 148.553 9.45318 148.553 10.996V11.0205C148.553 12.7593 147.207 13.8124 145.284 13.8124C143.885 13.7976 142.541 13.2568 141.51 12.294Z" fill="#242424"/>
</g>
<defs>
<clipPath id="clip0_782_2425">
<rect width="148.154" height="18" fill="white" transform="translate(0.423096)"/>
</clipPath>
</defs>
</svg>
