<svg width="107" height="20" viewBox="0 0 107 20" fill="none" xmlns="http://www.w3.org/2000/svg">
<path d="M0.638428 4.95823e-08L9.71438 7.40895L16.3271 0.260106C16.4188 0.160912 16.3485 0 16.2133 0H0.638428V4.95823e-08Z" fill="#2397D4"/>
<path d="M0.638428 20.0003L9.71438 12.5913L16.3271 19.7402C16.4188 19.8394 16.3485 20.0003 16.2133 20.0003H0.638428Z" fill="#2397D4"/>
<path d="M0.738048 0.0385005L12.791 9.86853C12.8742 9.93642 12.8742 10.0636 12.791 10.1315L0.738048 19.9615C0.627235 20.0519 0.461182 19.973 0.461182 19.83V0.169967C0.461182 0.0269734 0.627235 -0.0518753 0.738048 0.0385005Z" fill="#2F4A75"/>
<path d="M50.5912 14.1936C50.5912 17.6197 47.8217 19.9895 44.3671 19.9895H36.0496C35.9601 19.9895 35.8875 19.9169 35.8875 19.8274V0.162783C35.8875 0.074903 35.9587 0.00366227 36.0466 0.00366227H43.7674C47.1365 0.00366227 49.8489 2.28781 49.8489 5.6283C49.8489 7.3413 49.1351 8.68327 47.9646 9.62545C49.5635 10.5391 50.5912 12.1094 50.5912 14.1936ZM39.8274 3.82158V7.91742C39.8274 8.00925 39.9019 8.08369 39.9937 8.08369H43.7674C45.0664 8.08369 46.0139 7.02908 45.8996 5.6637C45.805 4.5331 44.8137 3.68675 43.6791 3.68675L39.9623 3.68675C39.8878 3.68675 39.8274 3.74711 39.8274 3.82158ZM46.6738 13.7505C46.5969 12.526 45.533 11.5954 44.306 11.5954L39.8274 11.5954V16.3064H44.3671C45.7691 16.3064 46.7658 15.2158 46.6738 13.7505ZM64.7026 16.392H56.9511C56.8871 16.392 56.8303 16.433 56.8101 16.4937L55.6787 19.8878C55.6584 19.9485 55.6016 19.9895 55.5376 19.9895H51.6004C51.498 19.9895 51.4262 19.8884 51.46 19.7917L58.351 0.103258C58.3718 0.0436057 58.4281 0.00366301 58.4913 0.00366301H63.1626C63.2257 0.00366301 63.282 0.043519 63.3029 0.103079L70.222 19.7915C70.256 19.8882 70.1843 19.9895 70.0817 19.9895H66.1162C66.0522 19.9895 65.9953 19.9486 65.9751 19.8878L64.8437 16.4937C64.8235 16.433 64.7666 16.392 64.7026 16.392ZM63.5162 12.5129L60.9822 4.96336C60.9368 4.82816 60.7456 4.82816 60.7002 4.96336L58.166 12.5129C58.1337 12.6093 58.2053 12.709 58.307 12.709H63.3752C63.4769 12.709 63.5485 12.6093 63.5162 12.5129ZM87.7366 0.164543V19.8286C87.7366 19.9175 87.6646 19.9895 87.5757 19.9895H84.8225C84.7701 19.9895 84.7209 19.9639 84.6908 19.921L76.1735 7.76964V19.8286C76.1735 19.9175 76.1015 19.9895 76.0126 19.9895H72.3944C72.3056 19.9895 72.2336 19.9175 72.2336 19.8286V0.164543C72.2336 0.0756911 72.3056 0.00366227 72.3944 0.00366227H75.1477C75.2001 0.00366227 75.2493 0.0291812 75.2794 0.0720567L83.7967 12.195V0.164543C83.7967 0.0756911 83.8687 0.00366227 83.9575 0.00366227H87.5757C87.6646 0.00366227 87.7366 0.0756911 87.7366 0.164543ZM102.135 19.908L98.4442 13.7205C98.3794 13.6119 98.222 13.6118 98.1572 13.7205L94.4662 19.908C94.4361 19.9585 94.3815 19.9895 94.3227 19.9895H90.2579C90.1282 19.9895 90.0479 19.8482 90.1143 19.7368L96.0226 9.82513C96.0541 9.77244 96.0541 9.70677 96.0227 9.65405L90.4281 0.256301C90.3618 0.144889 90.4421 0.00366227 90.5718 0.00366227H94.6366C94.6955 0.00366227 94.7501 0.0346833 94.7802 0.0853112L98.1571 5.75816C98.2219 5.86702 98.3795 5.86702 98.4443 5.75815L101.821 0.0853153C101.851 0.034685 101.906 0.00366211 101.965 0.00366211H106.029C106.159 0.00366211 106.239 0.145077 106.172 0.256486L100.579 9.62537C100.547 9.67816 100.547 9.74398 100.579 9.79676L106.515 19.7367C106.582 19.8481 106.501 19.9895 106.372 19.9895H102.278C102.22 19.9895 102.165 19.9585 102.135 19.908ZM25.6082 16.2105C25.0938 16.1438 24.6951 15.7088 24.6951 15.1763V11.8925C24.6951 11.8073 24.7641 11.7382 24.8493 11.7382H32.1069C32.1921 11.7382 32.2611 11.6692 32.2611 11.584V8.18089C32.2611 8.09568 32.1921 8.02661 32.1069 8.02661H24.8493C24.7641 8.02661 24.6951 7.95754 24.6951 7.87234V3.92676C24.6951 3.84155 24.7641 3.77248 24.8493 3.77248H32.8207C32.9059 3.77248 32.975 3.70341 32.975 3.61822V0.157929C32.975 0.0727357 32.9059 0.00366392 32.8207 0.00366392H20.9094C20.8242 0.00366392 20.7551 0.0727357 20.7551 0.157929V12.1979V16.2617C20.7551 18.3244 22.4273 19.9966 24.49 19.9966H33.1176V16.2105H25.6082Z" fill="#2F4A75"/>
</svg>
