<svg width="137" height="22" viewBox="0 0 137 22" fill="none" xmlns="http://www.w3.org/2000/svg">
<path fill-rule="evenodd" clip-rule="evenodd" d="M128.538 18.9444C127.855 18.9514 127.178 18.8204 126.547 18.5593C125.916 18.2982 125.344 17.9124 124.866 17.425C124.388 16.9376 124.013 16.3587 123.764 15.7229C123.515 15.0872 123.397 14.4077 123.417 13.7252C123.417 12.3629 123.959 11.0564 124.922 10.093C125.885 9.12974 127.192 8.58856 128.554 8.58856C129.916 8.58856 131.223 9.12974 132.186 10.093C133.15 11.0564 133.691 12.3629 133.691 13.7252C133.709 14.4101 133.589 15.0917 133.338 15.729C133.086 16.3662 132.708 16.9461 132.227 17.4336C131.746 17.9212 131.171 18.3063 130.537 18.566C129.903 18.8256 129.223 18.9543 128.538 18.9444ZM133.691 0.611084V8.94642C133.109 8.02927 132.298 7.27942 131.339 6.77068C130.379 6.26194 129.304 6.01184 128.218 6.04502C124.199 6.04502 120.896 9.39787 120.896 13.7087C120.896 18.0195 124.199 21.3778 128.218 21.3778C129.302 21.4128 130.377 21.1652 131.336 20.6594C132.296 20.1536 133.107 19.4071 133.691 18.493V20.998H136.218V0.611084H133.691ZM107.815 13.9014L111.404 3.84282L115.055 13.8959L107.815 13.9014ZM117.653 21.0145H120.522L112.94 0.611084H109.901L102.348 21.0145H105.216L106.868 16.4394H115.985L117.653 21.0145Z" fill="#62CB2C"/>
<path fill-rule="evenodd" clip-rule="evenodd" d="M93.3187 10.8403C93.3187 10.053 94.0784 9.64556 95.0089 9.64556C95.5003 9.63294 95.9843 9.76779 96.3984 10.0327C96.8124 10.2977 97.1377 10.6806 97.3322 11.132L100.531 9.38129C99.982 8.41311 99.179 7.61322 98.2088 7.06794C97.2386 6.52266 96.1378 6.2527 95.0254 6.2872C92.0249 6.2872 89.5199 7.93885 89.5199 10.9283C89.5199 16.065 97.0239 14.8978 97.0239 17.0284C97.0239 17.8763 96.2091 18.2837 95.0144 18.2837C94.3959 18.3351 93.7782 18.176 93.2616 17.8322C92.7449 17.4884 92.3595 16.9801 92.168 16.3898L88.8702 18.2286C89.9163 20.4749 92.0689 21.7026 94.9758 21.7026C98.092 21.7026 100.823 20.1831 100.823 17.0284C100.823 11.6606 93.3187 13.0039 93.3187 10.8403ZM83.3647 6.6946V14.5785C83.3647 17.1165 81.9994 18.1956 80.166 18.1956C78.4813 18.1956 77.2867 17.1771 77.2867 15.1896V6.6946H73.5319V15.6576C73.5319 19.5114 75.9488 21.7136 79.0374 21.7136C80.9864 21.7136 82.5004 20.9814 83.3702 19.6656V21.3172H87.125V6.6946H83.3647ZM67.7456 9.21062V6.6946H63.9964V21.2897H67.7456V14.3032C67.7456 11.2366 70.2176 10.3613 72.15 10.598V6.40832C70.3387 6.40832 68.4999 7.22313 67.7511 9.21062H67.7456ZM61.6896 10.3117V6.6946H58.3862V2.60952L54.6645 3.74916V6.6946H52.132V10.3172H54.6645V16.3733C54.6645 20.3097 56.4373 21.8788 61.7006 21.2732V17.8598C59.5479 17.9754 58.3973 17.9479 58.3973 16.3733V10.3172L61.6896 10.3117ZM46.7806 21.2897H50.5299V6.6946H46.7806V21.2897ZM48.6415 4.94385C49.2549 4.94245 49.8431 4.69965 50.2789 4.26797C50.7147 3.83629 50.9631 3.25042 50.9703 2.63705C50.9856 2.32353 50.9371 2.01017 50.8276 1.71598C50.7182 1.42179 50.5501 1.15289 50.3337 0.925597C50.1172 0.698302 49.8568 0.517344 49.5683 0.393699C49.2798 0.270054 48.9692 0.206299 48.6553 0.206299C48.3414 0.206299 48.0308 0.270054 47.7423 0.393699C47.4537 0.517344 47.1933 0.698302 46.9769 0.925597C46.7604 1.15289 46.5923 1.42179 46.4829 1.71598C46.3735 2.01017 46.3249 2.32353 46.3402 2.63705C46.3459 3.24613 46.59 3.82873 47.0202 4.25995C47.4504 4.69117 48.0324 4.93668 48.6415 4.94385ZM36.0779 21.7026C37.8292 21.7298 39.5572 21.2997 41.0914 20.4549C42.6256 19.6101 43.9129 18.3797 44.8262 16.8853L41.3687 14.8538C40.8303 15.7686 40.054 16.5205 39.1224 17.0295C38.1908 17.5384 37.1387 17.7854 36.0779 17.7442C32.092 17.7442 29.4713 14.9914 29.4713 11.0605C29.4713 7.12954 32.092 4.34375 36.0779 4.34375C37.1414 4.30528 38.1954 4.55642 39.1272 5.07035C40.0591 5.58428 40.8339 6.34168 41.3687 7.26167L44.8262 5.26868C43.9071 3.77832 42.6178 2.55131 41.0838 1.70712C39.5498 0.862924 37.8233 0.430299 36.0724 0.451361C29.9063 0.451361 25.4854 5.0925 25.4854 11.077C25.4854 17.0615 29.8898 21.7026 36.0724 21.7026H36.0779Z" fill="#262B25"/>
<path d="M11.7602 22C17.8232 22 22.7382 17.0751 22.7382 11C22.7382 4.92487 17.8232 0 11.7602 0C5.69723 0 0.782227 4.92487 0.782227 11C0.782227 17.0751 5.69723 22 11.7602 22Z" fill="#62CB2C"/>
</svg>
