<svg width="127" height="32" viewBox="0 0 127 32" fill="none" xmlns="http://www.w3.org/2000/svg">
<path fill-rule="evenodd" clip-rule="evenodd" d="M31.9925 15.9999C31.9925 24.8366 24.8307 32 15.9962 32C7.16175 32 0 24.8366 0 15.9999C0 7.16344 7.16175 0 15.9962 0C24.8307 0 31.9925 7.16344 31.9925 15.9999ZM23.3812 18.6204C23.3992 18.6316 23.4143 18.6468 23.4254 18.665C23.4374 18.6826 23.4452 18.7028 23.448 18.724C23.4509 18.7452 23.4488 18.7667 23.4419 18.787C22.7909 20.5422 21.5459 22.0141 19.9231 22.9469C18.3003 23.8798 16.402 24.2147 14.558 23.8936C12.714 23.5724 11.0407 22.6156 9.82857 21.189C8.61642 19.7625 7.942 17.9564 7.9224 16.0843C7.90281 14.2122 8.53929 12.3924 9.72132 10.9408C10.9033 9.48917 12.5563 8.49744 14.3932 8.13778C16.23 7.77811 18.1348 8.07323 19.7768 8.97188C21.4188 9.87053 22.6943 11.316 23.382 13.0573C23.3895 13.0764 23.3928 13.0971 23.3914 13.1177C23.3899 13.1382 23.3838 13.1582 23.3737 13.1762C23.3636 13.1944 23.3494 13.21 23.3325 13.222C23.3154 13.2341 23.296 13.242 23.2755 13.2454L20.0706 13.7563C20.0429 13.7608 20.0146 13.7569 19.9892 13.7448C19.964 13.7328 19.9429 13.7133 19.929 13.6891C19.4209 12.8087 18.6369 12.1204 17.6983 11.7307C16.7597 11.3411 15.7189 11.2717 14.7369 11.5335C13.7549 11.7952 12.8865 12.3734 12.2663 13.1786C11.646 13.9838 11.3083 14.9711 11.3056 15.9874C11.3029 17.0039 11.6353 17.993 12.2512 18.8015C12.8672 19.61 13.7325 20.1928 14.7131 20.4598C15.6936 20.7268 16.7349 20.663 17.6755 20.2784C18.6162 19.8937 19.4038 19.2096 19.9166 18.3321C19.9302 18.3092 19.9502 18.2906 19.9739 18.2785C19.9977 18.2664 20.0244 18.2613 20.051 18.2638L23.3219 18.5999C23.3431 18.602 23.3633 18.6091 23.3812 18.6204Z" fill="#0060FF"/>
<path d="M102.669 7.94995C107.368 7.93962 110.94 11.4192 110.94 15.995C110.94 20.5707 107.36 24.0378 102.656 24.0223C98.0035 24.0068 94.563 20.642 94.5288 16.0601C94.4874 11.3944 97.9363 7.9603 102.669 7.94995ZM97.3181 15.9701C97.3129 19.0112 99.6813 21.5219 102.6 21.5706C105.59 21.6192 108.131 19.0651 108.14 16.0012C108.149 12.9372 105.623 10.3707 102.631 10.4007C99.7133 10.4296 97.3232 12.9362 97.3181 15.9701Z" fill="#0060FF"/>
<path d="M52.4258 11.9697C48.9668 9.60174 45.8508 9.61208 43.7843 11.8829C41.9998 13.8475 41.9864 17.0532 43.7543 19.0861C45.8074 21.4511 48.6742 21.4842 52.1613 19.08C52.6781 19.6238 53.2033 20.1895 53.7264 20.7479C50.8431 24.2202 45.4942 24.5376 42.1425 21.5203C38.9377 18.6374 38.7382 13.2365 41.7135 10.0164C44.8676 6.604 50.501 6.604 54.0087 10.1426L52.4258 11.9697Z" fill="#0060FF"/>
<path d="M90.7472 19.515L92.1945 21.3371C90.3451 24.4951 84.3706 25.0091 81.0914 22.2729C77.5764 19.3361 77.226 13.7688 80.4111 10.4588C81.207 9.63506 82.1643 8.98452 83.2231 8.54783C84.2819 8.11115 85.4194 7.89772 86.5646 7.92092C87.7095 7.94412 88.8375 8.20343 89.8778 8.68265C90.918 9.16186 91.8482 9.85064 92.6102 10.7059L91.0107 12.4318C87.6158 10.0534 84.4306 10.072 82.3495 12.4256C80.5342 14.4792 80.6272 17.7158 82.5563 19.7302C84.7045 21.9688 87.532 21.9555 90.7472 19.515Z" fill="#0060FF"/>
<path d="M71.6237 23.7417H68.8923V10.7994H64.3436V8.43034H76.2325V10.7694H71.6237V23.7417Z" fill="#0060FF"/>
<path d="M60.2394 23.772H57.7501V8.40489H60.2394V23.772Z" fill="#0060FF"/>
<path d="M112.748 8.29119V23.8859H115.484V12.8524H115.741L124.093 23.8859H127V8.29119H124.207V19.4673H123.893L115.484 8.29119H112.748Z" fill="#0060FF"/>
</svg>
