<svg xmlns="http://www.w3.org/2000/svg" width="99" height="37" fill="none"><g fill="#0069B5"><path d="M15.591 9.939c.21-.112.405 0 .545.21-.112 1.607-1.398 2.907-2.698 3.774-.112-1.51.755-3.117 2.153-3.984ZM25.292 10.149c-.112 1.397-1.076 2.152-2.152 2.907 0-1.286.559-2.474 1.607-3.117.21-.112.56 0 .56.21h-.015ZM15.507 19.933c-.21 2.475-.978 4.949-3.215 6.347-.867.112-1.621-.21-1.72-.979.113-2.698 2.908-4.305 4.95-5.381l-.015.013Z"/><path fill-rule="evenodd" d="M22.566 2.293c-.36 0-.737-.016-1.119-.032-1.892-.08-3.914-.164-4.891 1.64 0 .642 0 1.3.643 1.62.915 0 1.708-.422 2.504-.848 1.173-.626 2.355-1.257 3.954-.55 4.836.42 9.575 4.306 10.973 8.947.866 2.698 1.286 6.01.42 8.723.011-.207.026-.42.042-.637.131-1.843.285-3.992-1.44-4.955-.644-.21-1.398 0-1.818.531-.156.994.35 1.736.86 2.485.539.788 1.082 1.583.86 2.688a13.7 13.7 0 0 1-7.857 11.406c-2.907 1.188-6.346 1.957-9.687 1.188 1.622.322 3.775 0 4.949-1.51.112-.642-.112-1.397-.755-1.719-.846 0-1.62.39-2.403.783-1.107.556-2.233 1.122-3.608.615-4.305-.42-8.387-3.117-10.554-7.101a15.796 15.796 0 0 1-.978-11.323c-.322 1.957-.56 4.418.978 5.927.322.42.979.42 1.51.322.643-.42.867-1.398.42-1.957-1.398-1.51-1.608-3.663-1.189-5.704.643-4.305 4.194-8.387 8.387-9.785 2.796-1.286 6.696-1.397 9.8-.754Zm-5.032 7.212c.42 2.796-1.957 4.949-4.193 6.249 0 .42.419.643.866.755 1.428.107 1.908-.906 2.376-1.894.45-.947.888-1.871 2.14-1.769.48.844-.056 1.455-.6 2.075-.565.644-1.137 1.298-.589 2.23a31.46 31.46 0 0 0 3.984-2.585c-.21-2.377.531-4.613 2.474-5.927.643-.322 1.608-.322 2.153.111.755.56.643 1.608.559 2.377-.465 1.243-1.325 1.982-2.262 2.788-.36.308-.73.626-1.093.986.117 1.138.842 1.042 1.63.937.626-.082 1.292-.17 1.725.349.322.755-.56 1.076-1.076 1.188a3.494 3.494 0 0 0-3.215.755c-1.189.979-1.51 2.265-1.72 3.55 0 1.958.755 3.985 2.698 4.753 1.286.112 2.377-.111 3.215-.978.755-.643.979-1.51.979-2.377-.112-.866-.322-1.817-1.286-2.264-.643-.21-1.51 0-1.818.755-.284.477-.002.931.262 1.355.332.534.634 1.02-.262 1.44-.978-.111-1.397-1.076-1.719-1.817 0-.978.322-1.817.867-2.474.866-.56 1.817-.978 2.907-.643 1.51.21 2.265 1.72 2.586 3.117 0 1.398-.21 2.698-1.076 3.774-1.076 1.189-2.474 1.51-4.096 1.622-1.398-.21-2.698-.643-3.774-1.817-1.188-1.72-1.72-4.515-.643-6.458a8.389 8.389 0 0 1 2.796-3.02c.203-.203.012-.406-.19-.622l-.02-.02c-.974.3-1.845.915-2.714 1.529-.665.47-1.33.939-2.039 1.266-.062.376-.12.759-.179 1.146-.464 3.067-.96 6.345-4.014 7.66a4.194 4.194 0 0 1-3.23-.111c-1.076-.643-1.397-1.817-1.285-3.117.673-2.76 3.026-4.016 5.255-5.206.64-.342 1.27-.678 1.846-1.043.21-.21.21-.42.21-.755-.333-.092-.688.044-1.063.187-.475.182-.984.377-1.524.135-.778-.156-1.104-.74-1.417-1.303-.334-.599-.654-1.171-1.49-1.171-.979-.867-1.076-2.377-.755-3.551.21-.322.42-.56.755-.643.104.385.082.837.06 1.284-.045.934-.09 1.844 1.016 2.07.56-2.376 1.51-5.171 4.096-5.926.867 0 1.817.21 1.957 1.076l-.07-.028Z" clip-rule="evenodd"/><path fill-rule="evenodd" d="M37.456 18.396a18.451 18.451 0 0 0-2.28-9.002 19.395 19.395 0 0 0-8.067-7.535A19.29 19.29 0 0 0 5.793 5.09c-5.27 4.962-7.436 13.14-4.417 20.03a18.872 18.872 0 0 0 14.538 11.407c7.967 1.076 15.166-2.474 19.15-9.156a18.451 18.451 0 0 0 2.393-8.974Zm-2.49-7.38c2.474 5.702 1.956 13.349-2.153 18.087a18.032 18.032 0 0 1-16.467 6.57 18.732 18.732 0 0 1-13.461-9.365A18.312 18.312 0 0 1 4.842 7.465C9.259 2.195 16.024.055 22.93 1.314c5.06.978 9.785 5.06 12.063 9.687l-.028.014ZM52.633 7.315c.14-1.3-.755-1.286-1.58-1.286-1.956 0-2.166.755-2.46 2.824l-.28 2.096c-.32 2.279.28 2.517 1.678 2.517s1.817-.392 2.097-2.167h-1.915l.335-2.377h4.67l-.322 2.237c-.63 4.333-1.608 5.116-5.284 5.116-3.215 0-4.753-.699-4.194-4.836l.476-3.313c.615-4.236 2.558-4.893 5.591-4.893 2.796 0 4.473.601 3.956 4.082h-2.768Zm9.883 5.843c-.196 1.356-.657 2.125-1.342 2.558-.685.433-1.566.531-2.614.531-2.838 0-3.355-1.23-2.852-4.585.504-3.452 1.287-4.613 4.194-4.613 2.698 0 3.355.937 2.838 4.613l-.07.49H58c-.223 1.58-.097 2.04.868 2.04.726 0 1.202-.098 1.341-1.048h2.307v.014Zm-1.957-2.614c.196-1.328-.196-1.426-.978-1.426-.783 0-1.119.238-1.329 1.426h2.307Zm5.102 5.591h-2.348l1.286-8.974h2.348L66.71 8.84h.097c.56-1.426 1.3-1.776 2.405-1.776 1.58 0 2.18.937 1.9 2.88l-.894 6.206h-2.376l.797-5.521c.111-.867-.014-1.3-.783-1.3-1.049 0-1.342.783-1.496 1.887l-.699 4.92Zm13.196-2.991c-.224 1.398-.56 2.139-1.398 2.6-.805.416-1.71.6-2.614.531-2.838 0-3.355-1.23-2.852-4.585.504-3.453 1.287-4.613 4.194-4.613 2.698 0 3.355.937 2.838 4.613l-.07.49h-4.67c-.223 1.579-.097 2.04.868 2.04.726 0 1.202-.098 1.342-1.048H78.8l.056-.028Zm-1.943-2.614c.196-1.328-.196-1.426-.979-1.426-.782 0-1.118.238-1.328 1.426h2.307Zm5.06 5.591H79.71l1.286-8.974h2.278l-.195 1.314h.097c.462-1.02 1.119-1.426 2.013-1.426 1.636 0 1.398 1.678 1.3 3.313l-.098.7h-2.124l.056-.42c.097-.63.223-1.328-.42-1.328s-.978.699-1.076 1.44l-.853 5.381Zm9.184-1.328c-.35 1.23-1.454 1.44-2.278 1.44-1.636 0-2.517-.489-2.195-2.796.308-2.152 1.314-2.823 3.005-2.823.671 0 1.706-.014 1.817 1.006h.112l.21-1.425c.14-.84.14-1.37-.867-1.37-.587 0-.978.167-1.118.978h-2.348c.42-2.796 2.027-2.768 3.704-2.768 2.404 0 3.355.378 2.796 3.467l-.811 5.591h-2.293l.28-1.328h-.084l.07.028Zm-.936-2.376c-.56 0-1.049.14-1.16.937-.14.978.53.978.88.978.978 0 1.314-.14 1.44-1.09.112-.755-.42-.839-1.16-.839v.014Zm7.017 3.704h-2.433l1.846-12.818H99l-1.761 12.818Z" clip-rule="evenodd"/><path d="M53.555 26.136h-4.376l.28-2.335h4.64l.42-2.795h-7.408l-1.846 12.818h7.465l.42-2.796h-4.753l.363-2.516h4.46l.335-2.376ZM54.52 33.824h2.376l1.817-12.818h-2.349L54.52 33.824ZM72.132 33.265c.63-.517 1.049-1.356 1.286-3.034l-.084-.028h-2.348c-.154 1.119-.266 1.44-1.328 1.44-.88 0-1.02-.251-.74-2.32.279-2.069.558-2.349 1.397-2.349.475 0 .755.042.895.252s.14.503.056.979h2.446c.447-3.104-.909-3.467-2.978-3.467-2.935 0-3.676 1.566-4.095 4.613-.518 3.536-.028 4.585 2.767 4.585 1.272 0 2.097-.154 2.726-.671ZM77.556 27.016h2.754l.223-2.124h-2.725l.28-1.901h-2.35l-.419 1.873h-.88l-.308 2.152h.88l-.642 4.432c-.336 2.278.867 2.516 2.376 2.516 1.915 0 2.726-.545 3.075-2.992l.112-.81h-1.65l-.083.475c-.112.6-.168 1.16-.783 1.16-.433 0-.475-.224-.42-.755l.56-4.026ZM80.561 33.838h2.349l.755-5.382c.097-.74.433-1.44 1.076-1.44s.503.7.42 1.328l-.057.42h2.14l.097-.7c.098-1.635.335-3.312-1.3-3.312-.895 0-1.552.405-2.013 1.426h-.098l.196-1.314H81.86l-1.3 8.974ZM87.285 33.838h2.334l1.049-8.946h-2.335l-1.048 8.946ZM88.683 23.27h2.334l.322-2.236h-2.335l-.321 2.236ZM96.65 33.293c.63-.517 1.049-1.356 1.287-3.034v-.027h-2.349c-.153 1.118-.265 1.44-1.328 1.44-.88 0-1.02-.252-.74-2.321.279-2.069.559-2.349 1.397-2.349.475 0 .755.042.895.252s.14.503.056.979h2.348c.448-3.104-.908-3.467-2.977-3.467-2.936 0-3.677 1.566-4.096 4.613-.517 3.536-.028 4.585 2.768 4.585 1.398 0 2.11-.154 2.74-.671Z"/><path fill-rule="evenodd" d="M65.562 30.832c-.195 1.356-.657 2.125-1.342 2.559-.685.433-1.565.53-2.614.53-2.837 0-3.355-1.23-2.851-4.584.503-3.453 1.286-4.613 4.193-4.613 2.698 0 3.355.936 2.838 4.613l-.07.49h-4.669c-.223 1.579-.098 2.04.867 2.04.727 0 1.202-.098 1.342-1.048l2.306.014Zm-2.935-4.04c.783 0 1.174.099.978 1.427H61.3c.21-1.189.545-1.426 1.328-1.426Z" clip-rule="evenodd"/></g></svg>