<svg width="115" height="22" viewBox="0 0 115 22" fill="none" xmlns="http://www.w3.org/2000/svg">
<g clip-path="url(#clip0_782_2158)">
<mask id="mask0_782_2158" style="mask-type:alpha" maskUnits="userSpaceOnUse" x="0" y="0" width="16" height="22">
<path d="M0.576416 0.280273H15.7286V21.923H0.576416V0.280273Z" fill="white"/>
</mask>
<g mask="url(#mask0_782_2158)">
<path fill-rule="evenodd" clip-rule="evenodd" d="M3.47566 3.60804C1.60014 5.60806 0.577637 8.27728 0.558838 11.059H5.92543C5.97243 7.9183 8.08617 5.463 11.206 5.463C12.9678 5.463 14.6768 6.25411 15.7286 7.72722V1.3167C14.2038 0.662114 12.6788 0.280273 11.0221 0.280273C8.2348 0.280273 5.42138 1.53489 3.47566 3.60804Z" fill="#9CC73E"/>
<path fill-rule="evenodd" clip-rule="evenodd" d="M6.04872 12.4702H0.625732C0.881578 14.9718 1.8797 17.1705 3.73847 18.9133C5.78964 20.8503 8.41889 21.9413 11.1797 21.9413C12.7838 21.9413 14.0196 21.532 15.7286 20.9865V14.576C14.6505 15.9126 12.9677 16.7582 11.2849 16.7582C8.52611 16.7582 6.54925 15.0209 6.04872 12.4702Z" fill="#0F0F0F"/>
</g>
<path fill-rule="evenodd" clip-rule="evenodd" d="M57.9425 21.1738V4.68886H53.6692V1.32666H65.9736V4.68886H61.6715V21.1738H57.9425Z" fill="#0F0F0F"/>
<path fill-rule="evenodd" clip-rule="evenodd" d="M72.3439 10.4616H73.4049C75.786 10.4616 77.0764 9.42002 77.0764 7.45658C77.0764 5.49253 75.843 4.48079 73.4622 4.48079H72.3439V10.4616ZM76.56 12.8127L82.5831 21.1739H77.9655L72.8031 13.1991H72.3439V21.1739H68.6152V1.32642H74.1507C76.2448 1.32642 77.937 1.83259 79.0268 2.75474C80.2026 3.73692 80.9199 5.4331 80.9199 7.21858C80.9199 9.27162 80.0878 11.0272 78.6825 11.9792C77.9943 12.4257 77.5922 12.6043 76.56 12.8127Z" fill="#0F0F0F"/>
<path fill-rule="evenodd" clip-rule="evenodd" d="M95.3134 4.68917H88.4584V9.55131H95.0549V12.9141H88.4584V17.8116H95.3134V21.1738H84.7297V1.32666H95.3134V4.68917Z" fill="#0F0F0F"/>
<path fill-rule="evenodd" clip-rule="evenodd" d="M29.6198 4.68917H22.7648V9.55131H29.3613V12.9141H22.7648V17.8116H29.6198V21.1738H19.0361V1.32666H29.6198V4.68917Z" fill="#0F0F0F"/>
<path fill-rule="evenodd" clip-rule="evenodd" d="M114.451 21.1738H110.368L98.2642 1.32666H102.433L114.451 21.1738Z" fill="#0F0F0F"/>
<path fill-rule="evenodd" clip-rule="evenodd" d="M109.357 8.8245L113.929 1.32666H109.76L107.288 5.40866L109.357 8.8245Z" fill="#0F0F0F"/>
<path fill-rule="evenodd" clip-rule="evenodd" d="M102.845 12.7461L97.7422 21.174H101.825L104.905 16.1238L102.845 12.7461Z" fill="#0F0F0F"/>
<path fill-rule="evenodd" clip-rule="evenodd" d="M31.3748 21.3122L34.8902 1.34009H37.414L42.5741 14.1645L47.961 1.34009H50.4845L53.6313 21.3122H49.9173L48.2447 9.22312L43.0273 21.577H42.0069L36.9884 9.22312L35.0891 21.3122H31.3748Z" fill="#0F0F0F"/>
</g>
<defs>
<clipPath id="clip0_782_2158">
<rect width="113.882" height="22" fill="white" transform="translate(0.558838)"/>
</clipPath>
</defs>
</svg>
