<svg width="149" height="30" viewBox="0 0 149 30" fill="none" xmlns="http://www.w3.org/2000/svg">
<g clip-path="url(#clip0_782_2408)">
<path d="M42.7163 21.8949V8.9707H47.2309L49.3304 17.7631L51.5602 8.9707H55.9239V21.8949H53.1794V11.8993H53.1451L50.586 21.8949H47.917L45.4607 11.8993V21.8949H42.7163Z" fill="#58585A"/>
<path d="M58.0989 15.4296C58.0989 12.0118 58.0989 8.75928 62.7232 8.75928C67.3476 8.75928 67.3476 12.0118 67.3476 15.4296C67.3476 18.8474 67.3476 22.1066 62.7232 22.1066C58.0989 22.1066 58.0989 18.8144 58.0989 15.4296ZM64.5071 15.4296C64.5071 12.1242 64.3013 10.6896 62.7232 10.6896C61.1452 10.6896 60.9394 12.1176 60.9394 15.4296C60.9394 18.7416 61.1452 20.1762 62.7232 20.1762C64.3013 20.1762 64.5071 18.7416 64.5071 15.4296Z" fill="#58585A"/>
<path d="M69.5979 21.8949V8.9707H72.4041V19.7464H76.603V21.8949H69.5979Z" fill="#58585A"/>
<path d="M78.2017 21.8949V8.9707H85.5224V10.954H81.0078V14.147H85.1656V16.1302H81.0078V19.905H85.6734V21.8883L78.2017 21.8949Z" fill="#58585A"/>
<path d="M95.2584 22.1066C91.7798 22.1066 91.1417 20.1233 91.279 17.9021H94.0851C94.0851 19.1383 94.14 20.1762 95.6837 20.1762C95.8808 20.1831 96.0771 20.1489 96.2592 20.0761C96.4414 20.0033 96.6051 19.8935 96.7392 19.7542C96.8733 19.615 96.9747 19.4495 97.0365 19.269C97.0983 19.0886 97.1189 18.8974 97.0971 18.7086C97.0971 16.3816 91.4505 16.2361 91.4505 12.3886C91.4505 10.3657 92.4522 8.75928 95.869 8.75928C98.6134 8.75928 99.9856 9.93601 99.7729 12.6398H97.0285C97.0285 11.6747 96.857 10.6896 95.7249 10.6896C95.5311 10.6679 95.3348 10.6883 95.1503 10.7495C94.9658 10.8106 94.7979 10.9108 94.6589 11.0428C94.52 11.1747 94.4136 11.3351 94.3475 11.5119C94.2815 11.6888 94.2574 11.8777 94.2772 12.0647C94.2772 14.5173 99.9239 14.3058 99.9239 18.3648C99.9376 21.7165 97.3922 22.1066 95.2584 22.1066Z" fill="#58585A"/>
<path d="M109.955 8.9707V11.1192H106.833V21.8949H104.027V11.1192H100.905V8.9707H109.955Z" fill="#58585A"/>
<path d="M113.989 21.8949H111.183V8.9707H116.363C118.277 8.9707 119.505 10.154 119.505 12.3555C119.505 14.0016 118.819 15.2378 117.015 15.522V15.5551C117.354 15.5476 117.692 15.61 118.004 15.7381C118.317 15.8662 118.597 16.057 118.827 16.2979C119.057 16.5388 119.231 16.8242 119.337 17.135C119.444 17.4458 119.48 17.7749 119.444 18.1003C119.444 18.92 119.505 21.3594 119.759 21.8949H117.015C116.729 21.0901 116.627 20.2357 116.713 19.3894C116.713 17.8491 116.864 16.5401 114.709 16.5401H113.989V21.8949ZM113.989 14.5569H115.231C116.342 14.5569 116.658 13.4793 116.658 12.6596C116.658 11.4233 116.123 10.9606 115.231 10.9606H113.989V14.5569Z" fill="#58585A"/>
<path d="M121.564 21.8949V8.9707H128.884V10.954H124.363V14.147H128.528V16.1302H124.363V19.905H129.029V21.8883L121.564 21.8949Z" fill="#58585A"/>
<path d="M130.86 21.8949V8.9707H138.174V10.954H133.66V14.147H137.824V16.1302H133.66V19.905H138.325V21.8883L130.86 21.8949Z" fill="#58585A"/>
<path d="M148.137 8.9707V11.1192H145.015V21.8949H142.202V11.1192H139.08V8.9707H148.137Z" fill="#58585A"/>
<path d="M0.86377 0V30H31.9993V0H0.86377ZM9.09705 27.0516H3.97183V18.8475H9.09705V27.0516ZM28.7128 27.0516H23.5876L23.6219 8.48832H23.5533L18.6339 27.1045H13.6391L9.1588 8.4156H9.09705V14.8744H3.99928L4.02672 2.87572L12.4521 2.91538L16.2806 19.3433H16.3492L20.603 2.95505H28.7265L28.7128 27.0516Z" fill="#DF6439"/>
</g>
<defs>
<clipPath id="clip0_782_2408">
<rect width="147.273" height="30" fill="white" transform="translate(0.86377)"/>
</clipPath>
</defs>
</svg>
